<svg width="188" height="28" viewBox="0 0 188 28" fill="none" xmlns="http://www.w3.org/2000/svg">
<g clip-path="url(#clip0_3143_541)">
<path d="M165.523 23.7556C177.936 23.7556 188.002 15.2476 188.002 4.75098H143.044C143.044 15.2476 153.108 23.7556 165.523 23.7556Z" fill="#555555"/>
<path d="M156.547 8.35262H158.714V15.0939H156.547V8.35262ZM174.429 8.35262H172.258V15.0939H174.429V8.35262ZM155.243 8.35262H153.24V11.7826L150.736 8.35262H148.632V15.0909H150.736V11.5165L152.193 13.5051C152.509 13.943 153.017 14.4934 153.655 14.8096C154.049 14.9997 154.637 15.1806 155.349 15.1806V8.35262H155.243ZM182.238 8.35262H180.238V11.7826L177.733 8.35262H175.625V15.0909H177.733V11.5165L179.186 13.5051C179.499 13.943 180.008 14.4934 180.648 14.8096C181.044 14.9997 181.627 15.1806 182.342 15.1806V8.35262H182.238ZM170.291 12.4607C169.273 11.8799 168.415 11.6731 168.147 11.5682C167.84 11.4435 167.642 11.179 167.642 10.8901C167.642 10.4705 168.063 10.1314 168.577 10.1314H171.001V8.35262H168.108C166.51 8.3511 165.214 9.44424 165.21 10.7943C165.21 10.9084 165.219 11.0209 165.237 11.1334C165.036 10.9038 164.789 10.7046 164.509 10.5435C163.493 9.96421 162.633 9.75592 162.365 9.65101C162.059 9.52482 161.865 9.26332 161.863 8.97597C161.863 8.55635 162.282 8.21731 162.798 8.21731H165.223V6.43848H162.329C160.73 6.44152 159.437 7.53922 159.439 8.89083C159.441 9.78633 160.02 10.6073 160.95 11.0361C161.279 11.1881 161.547 11.3158 161.984 11.4739C162.268 11.5728 163.467 11.9012 163.467 12.558C163.467 12.97 162.994 13.3075 162.412 13.3075H159.444V15.0894H162.879C164.498 15.0894 165.816 13.9765 165.816 12.6066C165.816 12.4865 165.802 12.374 165.788 12.26C166.036 12.5428 166.356 12.7799 166.73 12.9502C167.059 13.1022 167.325 13.2284 167.764 13.3866C168.045 13.4869 169.251 13.8168 169.251 14.4706C169.251 14.8826 168.777 15.2186 168.192 15.2186H165.228V17.0005H168.661C170.009 17.7591 171.827 17.452 172.726 16.3133C173.625 15.1745 173.26 13.6374 171.913 12.8772C171.433 12.6066 170.87 12.4622 170.294 12.4607" fill="white"/>
</g>
<path d="M26.6905 10.8198V17.874H28.5816V10.8198H26.6905ZM23.2867 8.131H21.3416C21.1255 8.131 21.1615 8.30499 21.1615 8.30499C21.1975 8.52642 21.2516 8.8902 21.2516 9.6494C21.2516 11.326 21.0174 13.7301 18.9283 16.0235L18.7842 16.1817C18.7842 16.1817 17.5235 8.46315 17.5055 8.3208C17.5055 8.3208 17.5055 8.14682 17.3254 8.14682H15.3624C15.1823 8.14682 15.1823 8.3208 15.1823 8.3208C15.1282 9.20653 14.5699 16.6404 8.39257 17.8424C9.70728 17.9689 11.2921 17.6052 12.6789 16.8618C14.3898 15.9286 15.5425 14.5526 15.9207 12.9709C15.9207 12.9709 16.6771 17.1149 16.7671 18.0638V18.1271L16.7131 18.1587C14.9842 18.9654 13.0211 19.4083 11.058 19.4083C6.19537 19.4083 1.89103 16.8776 0 13.0183C1.11661 17.5577 5.72712 20.8634 11.112 20.8634C17.3975 20.8634 21.1435 16.2449 21.7919 12.9551C21.7919 12.9551 22.6383 17.7475 22.6563 17.9057H25.2317C25.1957 17.7001 23.4848 8.49479 23.4668 8.35244C23.4668 8.35244 23.4668 8.17845 23.2867 8.17845V8.131ZM1.51282 12.1642C1.51282 7.10292 6.37547 2.9906 12.3367 2.9906C16.0287 2.9906 19.4686 4.61971 21.4677 7.26109C20.0089 3.65489 15.9387 1.1875 11.3822 1.1875C5.49299 1.1875 0.702382 5.22074 0.702382 10.1713C0.702382 11.5316 1.08059 12.8602 1.78297 14.0781C1.62088 13.4612 1.51282 12.8127 1.51282 12.1801V12.1642ZM46.6454 11.8321C45.961 11.1362 45.0065 10.7724 43.8539 10.7724C42.6832 10.7724 41.6927 11.1045 40.9003 11.7688C40.1258 12.4173 39.7296 13.2872 39.7296 14.3628C39.7296 15.4225 40.1078 16.2766 40.8642 16.9092C41.6207 17.5419 42.7193 17.8582 44.088 17.8582C46.7534 17.8582 47.3298 16.2449 47.5459 15.723L46.8615 15.5332C46.2492 16.5138 44.8804 16.5771 44.07 16.5296C43.4937 16.498 42.9714 16.324 42.5572 16.071C42.1429 15.8021 41.8548 15.4225 41.7287 14.8373L41.6927 14.6158H47.6719C47.6539 13.4612 47.3118 12.528 46.6454 11.8479V11.8321ZM41.8368 13.6194C41.7467 13.6194 41.7467 13.5403 41.7467 13.5087C41.8188 13.0974 41.9989 12.7811 42.323 12.4964C42.6832 12.1642 43.2415 11.9744 43.8359 11.9744C44.3762 11.9744 44.8084 12.1168 45.1866 12.3857C45.4928 12.6229 45.7089 12.9551 45.8349 13.4138C45.853 13.4612 45.889 13.6036 45.7449 13.6036H41.8368V13.6194ZM52.6607 10.7407C50.3914 10.7407 49.581 11.9586 49.3288 12.528C49.3288 12.5438 49.2388 12.7336 49.2388 12.7336L49.9952 12.9551C49.9952 12.9551 50.4815 11.7214 52.4085 11.8005C54.3536 11.8637 54.1195 13.2714 54.1195 13.4928C53.0389 13.2081 51.508 13.2398 50.4995 13.6352C49.2388 14.1413 49.0407 15.1536 49.0947 15.897C49.1488 17.0041 50.2654 17.7791 51.7061 17.8424C53.0028 17.9057 53.5792 17.6526 54.1195 17.1939L54.1014 17.8424H55.8124V15.9919V13.7143V13.3189V12.9867C55.8484 12.1484 55.182 10.7249 52.6607 10.7249V10.7407ZM54.1014 16.2133C54.1014 16.324 54.0654 16.4031 53.9574 16.4506C53.6332 16.5929 52.9488 16.7827 52.1024 16.7353C51.2199 16.672 50.8777 16.1184 50.8237 15.8812C50.8057 15.7863 50.6075 14.7582 51.7422 14.4418C52.4806 14.2362 53.4171 14.3628 53.9213 14.4893C54.0654 14.5209 54.1014 14.6 54.1014 14.7582V16.2291V16.2133ZM28.4555 8.131H26.8886C26.6545 8.131 26.6905 8.33662 26.6905 8.33662C26.6905 8.55805 26.6905 9.60195 26.6905 9.82338H28.6176V8.3208C28.6176 8.3208 28.6356 8.14682 28.4375 8.14682L28.4555 8.131ZM38.0727 8.131H36.4698C36.3078 8.131 36.3078 8.28917 36.3078 8.28917V11.1836L36.0736 11.0729C35.8215 10.9622 35.5694 10.8831 35.2992 10.8356C35.0291 10.7882 34.7049 10.7724 34.3447 10.7724C33.084 10.7724 32.0574 11.0887 31.301 11.7372C30.5626 12.3699 30.1664 13.2872 30.1664 14.4102C30.1664 15.4067 30.4906 16.2449 31.1209 16.9092C31.7513 17.5577 32.6698 17.8899 33.8764 17.8899C35.6054 17.8899 36.2898 16.9725 36.2898 16.9725V17.8582H38.2348V16.1975C38.2348 14.3311 38.2348 8.30499 38.2348 8.30499C38.2348 8.30499 38.2348 8.131 38.0727 8.131ZM36.1997 15.9444C36.0196 16.0868 35.7855 16.1975 35.4973 16.2924C35.1912 16.4031 34.831 16.4506 34.4347 16.4506C33.7864 16.4506 33.2641 16.2608 32.8859 15.8812C32.5077 15.5016 32.3276 14.948 32.3276 14.2046C32.3276 13.477 32.5077 12.9393 32.8499 12.6071C33.2101 12.2591 33.7504 12.0852 34.4708 12.0852C34.849 12.0852 35.2092 12.1326 35.5333 12.2433C35.8215 12.3382 36.0376 12.4331 36.1997 12.5597C36.2537 12.6071 36.3078 12.6862 36.3078 12.7969V15.6914C36.3078 15.8021 36.2537 15.8812 36.1997 15.9286V15.9444Z" fill="#555555"/>
<path d="M56.9831 6.96045C56.3168 6.96045 55.8125 7.40331 55.8125 7.98853C55.8125 8.55793 56.3168 9.01661 56.9831 9.01661C57.6495 9.01661 58.1538 8.57375 58.1538 7.98853C58.1538 7.41913 57.6495 6.96045 56.9831 6.96045ZM56.9831 7.1028C57.5414 7.1028 57.9737 7.49821 57.9737 7.98853C57.9737 8.47885 57.5595 8.87426 56.9831 8.87426C56.4248 8.87426 55.9926 8.47885 55.9926 7.98853C55.9926 7.49821 56.4068 7.1028 56.9831 7.1028ZM56.731 8.0518H57.0192L57.3974 8.57375H57.5955L57.1993 8.0518C57.3794 8.02016 57.5414 7.92526 57.5414 7.71965C57.5414 7.51403 57.4154 7.3875 57.1092 7.3875H56.5869V8.57375H56.749V8.0518H56.731ZM56.731 7.92526V7.51403H57.0372C57.1993 7.51403 57.3613 7.54566 57.3613 7.71965C57.3613 7.92526 57.1632 7.92526 56.9651 7.92526H56.749H56.731Z" fill="#555555"/>
<path d="M81.7274 10.4001L72.2021 18.71H81.7281V10.3995" fill="#555555" fill-opacity="0.9"/>
<path d="M90.6661 14.0305L96.0238 18.7041L117.476 0.00014881H93.647L85.3018 7.28001V18.7011H90.9694L85.6203 14.035L90.9685 9.36244H96.0247L90.6574 14.0503L90.6656 14.0304" fill="#555555" fill-opacity="0.9"/>
<path d="M85.3025 23.2044H86.6084V25.0529L88.1256 23.2044H89.5889L87.7865 25.1699L89.7737 27.4816H88.1494L86.6065 25.4979V27.4816H85.2998V23.2041H85.3011L85.3025 23.2038L85.3025 23.2044ZM90.133 22.8586H91.3782V27.4818H90.1327V22.8588L90.133 22.8589V22.8586ZM94.3382 26.0397C93.9726 26.0397 93.7092 26.0747 93.5481 26.1437C93.3868 26.212 93.3069 26.3239 93.3069 26.4763C93.3069 26.5862 93.3498 26.676 93.436 26.7446C93.5223 26.8128 93.6364 26.8465 93.7789 26.8465C94.0049 26.8465 94.1893 26.7807 94.3331 26.6479C94.4763 26.5161 94.5484 26.3429 94.5484 26.1301V26.0397H94.3382ZM95.7207 25.8237V27.4821H94.6416L94.6144 26.9891C94.4674 27.1711 94.2895 27.3055 94.0813 27.3903C93.873 27.476 93.6222 27.5176 93.3273 27.5176C92.9591 27.5176 92.6662 27.4267 92.4474 27.2437C92.2293 27.0617 92.1195 26.8168 92.1195 26.5127C92.1195 26.1621 92.2788 25.9017 92.5955 25.7316C92.9138 25.5624 93.402 25.4776 94.0617 25.4776H94.5482V25.4357C94.5482 25.2623 94.4729 25.1296 94.3208 25.0379C94.1701 24.9455 93.9482 24.8988 93.6587 24.8988C93.5169 24.8988 93.3533 24.9204 93.1725 24.9648C92.9907 25.0093 92.7951 25.0734 92.5868 25.1582L92.5657 24.4422C92.7676 24.3682 92.9867 24.3123 93.2221 24.2768C93.4574 24.2407 93.7172 24.2226 94.0001 24.2226C94.5932 24.2226 95.0285 24.3513 95.3051 24.6092C95.5814 24.8676 95.7205 25.2718 95.7205 25.8241V25.8226L95.7207 25.8237ZM98.6387 25.022C98.3932 25.022 98.1971 25.0979 98.0526 25.2508C97.9074 25.4022 97.8352 25.6107 97.8352 25.8716C97.8352 26.1379 97.9039 26.3471 98.0417 26.4976C98.1797 26.6482 98.3694 26.7238 98.6103 26.7238C98.8387 26.7238 99.0198 26.6497 99.156 26.5025C99.2909 26.3545 99.359 26.1568 99.359 25.9111C99.359 25.6453 99.2916 25.431 99.1577 25.2677C99.0218 25.1035 98.8493 25.0218 98.6387 25.0218V25.022ZM96.5897 22.8586H97.8352V24.7506C97.9793 24.5754 98.1503 24.4438 98.3467 24.3575C98.5427 24.2713 98.7706 24.2281 99.0285 24.2281C99.5157 24.2281 99.9045 24.3746 100.195 24.6687C100.485 24.9627 100.632 25.3578 100.632 25.8532C100.632 26.3546 100.482 26.7591 100.183 27.0678C99.8839 27.376 99.4945 27.5298 99.0139 27.5298C98.7271 27.5298 98.4719 27.4708 98.2472 27.3552C98.0233 27.2395 97.8403 27.0696 97.7004 26.8466V27.4818H96.5897V22.8583V22.8586ZM101.434 24.3117H102.68V27.4818H101.434V24.312V24.3117ZM101.434 22.8586H102.68V23.7399H101.434V22.8586ZM107.437 25.6272V27.4818H106.203V25.8534C106.203 25.6045 106.152 25.4189 106.05 25.2974C105.949 25.1766 105.796 25.1154 105.589 25.1154C105.373 25.1154 105.201 25.1918 105.07 25.3451C104.941 25.4968 104.876 25.7009 104.876 25.9585V27.4817H103.631V24.3121H104.762V24.8817C104.905 24.6688 105.089 24.5067 105.315 24.3953C105.539 24.2839 105.793 24.2279 106.076 24.2279C106.519 24.2279 106.857 24.3473 107.089 24.5844C107.32 24.823 107.438 25.1708 107.438 25.6278" fill="#555555" fill-opacity="0.9"/>
<defs>
<clipPath id="clip0_3143_541">
<rect width="44.9565" height="19.0046" fill="white" transform="translate(143.044 4.75098)"/>
</clipPath>
</defs>
</svg>
