<svg width="188" height="28" viewBox="0 0 188 28" fill="none" xmlns="http://www.w3.org/2000/svg">
<path d="M86.098 11.454C86.0948 11.8804 85.955 12.0956 85.7815 12.1116C85.6678 12.1221 85.5364 12.0479 85.4179 11.8931C85.0282 11.3874 84.6017 10.9052 84.1485 10.432C84.1485 10.4311 84.149 10.4298 84.1495 10.429C84.3252 9.6824 84.6065 8.92103 85.088 8.25879C85.6902 9.21714 86.1055 10.3877 86.098 11.454ZM83.8383 11.4291C84.2638 11.7303 84.3802 11.9707 84.2851 12.1019C84.2232 12.1879 84.0679 12.2284 83.8399 12.2074C83.0771 12.1365 82.3164 12.1086 81.5466 12.1044C81.546 12.1036 81.545 12.1027 81.5439 12.1019C80.8174 11.4186 80.1597 10.6488 79.7374 9.81738C81.1777 10.0869 82.7365 10.65 83.8383 11.4295M82.3858 12.9881C82.9543 12.8932 83.265 12.9713 83.3349 13.1197C83.3808 13.2172 83.3237 13.3471 83.163 13.4863C82.6308 13.9452 82.1429 14.4273 81.6747 14.9293H81.6704C80.5243 14.9964 79.3322 14.9588 78.2139 14.7386C79.3536 13.941 80.898 13.2366 82.3863 12.9885M83.036 14.9107C83.2847 14.4927 83.55 14.3354 83.7326 14.3793C83.8527 14.4079 83.9408 14.5227 83.9728 14.707C84.0753 15.2887 84.2232 15.8594 84.4036 16.4305C84.4031 16.4314 84.402 16.4322 84.401 16.433C83.7775 17.1324 83.1086 17.8056 82.2694 18.3531C82.1701 17.2231 82.4295 15.9302 83.036 14.9107ZM85.1889 15.5966C84.9679 15.214 84.9844 14.9546 85.1339 14.8652C85.2321 14.8065 85.3891 14.8175 85.5717 14.9027C86.129 15.1626 86.7034 15.4055 87.3055 15.5983C87.3055 15.5991 87.3055 15.6004 87.3061 15.6012C87.5228 16.3162 87.6488 17.0666 87.5933 17.8022C86.5907 17.2834 85.6811 16.4482 85.1889 15.5966ZM87.0851 14.6543C86.6265 14.5741 86.4071 14.4117 86.4215 14.2641C86.4306 14.1671 86.5374 14.0739 86.7253 14.0081C87.3018 13.806 87.8709 13.5837 88.4068 13.3176C88.4079 13.318 88.409 13.3184 88.4095 13.3188C89.1195 13.6052 89.8017 13.9688 90.3505 14.429C89.3528 14.7361 88.118 14.8348 87.0851 14.6543ZM87.4609 12.8768C87.0979 13.1277 86.8182 13.1699 86.6959 13.0683C86.6158 13.0016 86.5998 12.8725 86.6601 12.7055C86.8529 12.1761 87.0023 11.6413 87.1267 11.098C87.1278 11.098 87.1289 11.0976 87.1299 11.0971C87.8618 10.8263 88.5964 10.5783 89.4088 10.5113C89.025 11.3777 88.3294 12.277 87.4609 12.8772" fill="#2F2F2F" fill-opacity="0.9"/>
<path d="M86.5882 8.30575C86.0076 8.94794 85.668 9.68672 85.456 10.4112C85.456 10.412 85.4554 10.4132 85.4547 10.414C85.3091 10.2937 85.1158 10.1488 84.9482 10.0166C84.3142 9.51481 83.6131 9.04576 82.9036 8.58489C84.068 8.28816 85.3465 8.19074 86.5882 8.30575ZM78.2139 12.2362C79.299 12.1519 80.3893 12.075 81.4693 12.0516C81.7483 12.0455 82.0647 12.0365 82.3147 12.0365C82.3134 12.0357 82.3127 12.0344 82.3115 12.034C81.4345 11.371 80.6406 10.624 80.1309 9.81769C79.163 10.4967 78.5025 11.3399 78.2139 12.2366M80.3519 16.9497C80.8623 16.3586 81.4003 15.7737 81.9886 15.222C82.1446 15.0755 82.3205 14.9073 82.468 14.7775C82.4661 14.7775 82.4648 14.7775 82.4629 14.7775C81.0801 14.8426 79.6412 14.8066 78.2912 14.5925C78.6366 15.4766 79.3441 16.2997 80.3519 16.9497ZM86.8653 18.2831C86.5366 17.7572 86.2215 17.228 85.9709 16.6938C85.9013 16.5457 85.8194 16.3734 85.7621 16.2338C85.7615 16.2346 85.7602 16.2354 85.7595 16.2363C85.0069 16.9145 84.1995 17.5677 83.1865 18.0994C84.4095 18.3269 85.5971 18.4338 86.8653 18.2831ZM91.9423 15.9854C91.2367 15.872 90.5337 15.7431 89.859 15.574C89.667 15.5257 89.4434 15.475 89.2656 15.4267C89.2656 15.4275 89.2656 15.4287 89.2662 15.4295C89.5278 16.1233 89.6799 16.851 89.6129 17.5652C90.5633 17.1576 91.3604 16.6132 91.9423 15.9858M92.8883 12.1638C92.3218 12.4597 91.7393 12.7462 91.124 12.9967C90.9519 13.0667 90.7567 13.1514 90.5936 13.214C90.5949 13.214 90.5956 13.2148 90.5969 13.2152C91.4539 13.4932 92.2774 13.8456 92.9398 14.2921C93.097 13.5541 93.0841 12.898 92.8883 12.1638ZM89.3861 8.95981C89.3345 9.51277 89.2714 10.067 89.1534 10.6076C89.1212 10.7542 89.0851 10.9252 89.0491 11.0603C89.0503 11.0603 89.0516 11.0595 89.0529 11.0595C89.9364 10.7967 90.823 10.5561 91.8038 10.491C91.1877 9.87499 90.3623 9.34618 89.3867 8.96022" fill="#555555" fill-opacity="0.9"/>
<path d="M135.219 9.18709L133.777 17.299H131.942V16.3922C131.033 17.0845 130.089 17.4348 129.132 17.4348C128.46 17.4348 127.963 17.2803 127.614 16.9624C127.074 16.4719 126.915 15.605 127.129 14.3129C127.552 11.8907 128.687 11.4041 130.381 11.4041C131.051 11.4041 131.818 11.4523 132.5 11.5325L132.917 9.18709H135.219ZM131.262 12.7404C129.984 12.7404 129.711 12.8698 129.458 14.3567C129.328 15.1188 129.291 15.5941 129.48 15.7668C129.559 15.8387 129.692 15.8682 129.894 15.8613C130.592 15.8505 131.147 15.5567 131.863 15.0524L132.268 12.7404H131.261H131.262ZM110.532 11.4041C109.23 11.4041 108.338 11.6196 107.727 12.0821C107.123 12.5392 106.766 13.2374 106.57 14.3459C106.373 15.4475 106.541 16.2249 107.083 16.7223C107.606 17.2016 108.492 17.4348 109.793 17.4348C110.432 17.4348 111.372 17.3885 112.218 17.1671L112.277 17.1519L112.516 15.7968L112.363 15.817C111.775 15.8839 111.034 15.9179 110.162 15.9179C109.558 15.9179 109.258 15.8588 109.09 15.7073C108.882 15.5198 108.843 15.1543 108.955 14.4463C109.155 13.1336 109.667 12.922 110.815 12.922C111.28 12.922 113.017 12.9456 113.017 12.9456L113.242 11.66C113.242 11.66 112.269 11.4046 110.531 11.4046M126.145 12.0418C126.495 12.3631 126.612 12.8133 126.504 13.4189C126.281 14.6401 125.205 14.9432 123.543 15.0372L121.567 15.1557C121.62 15.8175 122.053 15.941 122.869 15.941C123.572 15.941 125.265 15.8751 125.542 15.819L125.653 15.7964L125.666 15.8874C125.735 16.3666 125.935 16.896 125.937 16.9014L125.963 16.9703L125.879 16.9984C124.981 17.299 123.564 17.4358 122.627 17.4358C121.3 17.4358 120.387 17.1961 119.836 16.7027C119.276 16.1998 119.082 15.415 119.247 14.3036C119.576 12.1362 120.626 11.4051 123.408 11.4051C124.783 11.4051 125.678 11.6137 126.145 12.0423M123.214 13.8942C123.885 13.8514 124.196 13.7471 124.274 13.2403C124.294 13.0637 124.271 12.9559 124.2 12.8944C124.095 12.8034 123.848 12.7852 123.483 12.7852C123.416 12.7852 123.344 12.7857 123.268 12.7867C122.19 12.7867 121.924 13.0794 121.712 14.0084L123.215 13.8942H123.214ZM119.501 11.564H119.057C118.214 11.564 117.389 11.8966 116.325 12.6706V11.564H114.504L113.496 17.3005H115.801L116.359 14.001C116.65 13.7063 117.457 13.3594 118.057 13.3594H118.549L118.566 13.2964C118.568 13.289 118.776 12.5515 119.412 11.6841L119.5 11.564H119.501ZM95.3076 11.3042C95.1149 12.488 95.6343 13.1877 97.0451 13.6448L98.908 14.2352C99.4998 14.4074 99.6301 14.4955 99.5541 14.9614C99.4393 15.5626 99.1452 15.7235 97.8432 15.7235H94.6781L94.3965 17.299H97.9352C100.692 17.299 101.618 16.7814 101.898 15.0834C102.07 14.0118 101.837 13.2428 100.144 12.7198L98.383 12.1859C97.7005 11.9827 97.5751 11.9015 97.6653 11.4258C97.7697 10.8954 98.0149 10.7807 98.5257 10.7522H102.302L102.584 9.17676H99.2132C96.9191 9.17676 95.617 9.51576 95.3082 11.3037M102.601 17.3H104.891L105.899 11.5635H103.609L102.601 17.3ZM106.042 10.7522L106.318 9.17676H104.029L103.752 10.7522H106.042ZM135.18 17.3H137.47L138.478 11.5635H136.188L135.18 17.3ZM138.621 10.7522L138.898 9.17676H136.608L136.331 10.7522H138.621Z" fill="#555555" fill-opacity="0.9"/>
<path d="M39.3371 17.6611V20.2391C39.034 20.2888 38.7232 20.3137 38.4114 20.3133C37.5684 20.3133 37.1257 20.0039 37.1257 19.332V17.6611C37.0056 17.6451 36.8835 17.637 36.761 17.637C36.6308 17.6369 36.5008 17.645 36.3727 17.6611V19.3449C36.3727 20.2585 37.0831 20.7209 38.3664 20.7209C38.9495 20.7144 39.5289 20.6565 40.0901 20.5485V17.6611C39.9668 17.645 39.8415 17.6369 39.716 17.637C39.5889 17.6369 39.4621 17.645 39.3371 17.6611ZM43.0545 17.637C42.5712 17.6384 42.1212 17.8049 41.8564 18.0801C41.8469 17.9395 41.8232 17.7995 41.7854 17.6611C41.6817 17.6435 41.575 17.6354 41.4681 17.637C41.3582 17.637 41.2487 17.6451 41.1414 17.6611V20.6855C41.2607 20.7016 41.382 20.7097 41.5036 20.7096C41.6339 20.7097 41.7639 20.7016 41.892 20.6855V18.9743C41.892 18.4265 42.401 18.0559 43.045 18.0559C43.1601 18.0521 43.2754 18.0581 43.3884 18.0736C43.414 18.0013 43.4267 17.9272 43.4262 17.8529C43.4263 17.7885 43.4169 17.7242 43.3978 17.6611C43.2846 17.6466 43.1697 17.6386 43.0545 17.637ZM31.6301 19.1854C31.6301 20.0667 32.4115 20.6097 33.5243 20.6097C33.8939 20.6129 34.2605 20.5647 34.6017 20.4679V20.6967C34.6017 21.3251 34.1281 21.5845 33.2781 21.5845C32.8207 21.5862 32.3686 21.5185 31.9545 21.3864C31.9375 21.454 31.9288 21.5224 31.9285 21.591C31.9285 21.6612 31.9376 21.7312 31.9545 21.8005C32.3971 21.9343 32.8767 22.0019 33.361 21.9986C34.6206 21.9986 35.3546 21.5153 35.3546 20.6403V17.7852C34.8992 17.6725 34.4186 17.6142 33.934 17.6128C32.466 17.6128 31.6491 18.2799 31.6491 19.187M34.6017 20.0732C34.3023 20.16 33.9799 20.2039 33.6546 20.2021C32.8945 20.2021 32.4044 19.8073 32.4044 19.1967C32.4044 18.4748 32.949 18.0253 33.8819 18.0253C34.1266 18.019 34.3713 18.0397 34.6064 18.0865L34.6017 20.0732ZM50.423 18.9872L49.9873 18.8519C49.5516 18.7165 49.3172 18.6295 49.3172 18.4007C49.3172 18.1171 49.7245 18.0253 50.1767 18.0253C50.5385 18.0269 50.8972 18.0705 51.2375 18.1542C51.2564 18.0851 51.2659 18.015 51.2659 17.9447C51.2659 17.8825 51.2565 17.8204 51.2375 17.7594C50.8697 17.6565 50.4748 17.6061 50.0772 17.6112C49.2627 17.6112 48.5737 17.9254 48.5737 18.3894C48.5737 18.7842 48.8105 19.0114 49.6156 19.2466L49.9517 19.3449C50.4679 19.506 50.6621 19.6285 50.6621 19.8702C50.6621 20.1924 50.2099 20.3084 49.7742 20.3084C49.3353 20.3081 48.9009 20.249 48.4956 20.1344C48.4483 20.2684 48.4483 20.4081 48.4956 20.5421C48.9281 20.6741 49.4001 20.7354 49.8736 20.7209C50.726 20.7209 51.415 20.3987 51.415 19.875C51.415 19.4496 51.0977 19.1967 50.4182 18.9872M29.2032 17.6112C28.0193 17.6112 27.264 18.2412 27.264 19.1789C27.264 20.1167 28.043 20.7209 29.395 20.7209C29.8379 20.7241 30.2776 20.6694 30.6901 20.5598C30.7091 20.4951 30.7186 20.4292 30.7186 20.3632C30.7186 20.2967 30.7091 20.2303 30.6901 20.165C30.2912 20.2602 29.8721 20.3103 29.4494 20.3133C28.5426 20.3133 28.043 19.9185 27.998 19.2772H30.9269C30.9439 19.1664 30.9526 19.0551 30.953 18.9437C30.953 18.1236 30.2426 17.6112 29.2127 17.6112M28.0075 18.9002C28.0714 18.3443 28.5686 18.0108 29.1914 18.0108C29.8638 18.0108 30.2355 18.3814 30.2355 18.9002H28.0075ZM45.8934 17.6112C44.6883 17.6112 43.9353 18.1848 43.9353 19.1725C43.9353 20.1602 44.6788 20.7274 45.884 20.7274C47.0892 20.7274 47.8516 20.1409 47.8516 19.1725C47.8516 18.18 47.1413 17.6112 45.8934 17.6112ZM45.8934 20.3133C45.1144 20.3133 44.7096 19.9072 44.7096 19.1725C44.7096 18.4378 45.1358 18.0253 45.9053 18.0253C46.6748 18.0253 47.1034 18.4136 47.1034 19.1725C47.1034 19.9314 46.6843 20.3133 45.8958 20.3133M25.6019 18.9888L25.1662 18.8535C24.7305 18.7181 24.4961 18.6311 24.4961 18.4023C24.4961 18.1187 24.9034 18.0269 25.358 18.0269C25.7198 18.0285 26.0785 18.0721 26.4187 18.1558C26.4357 18.0866 26.4444 18.0165 26.4448 17.9463C26.4448 17.8842 26.4357 17.8221 26.4187 17.761C26.0506 17.6589 25.656 17.6084 25.2585 17.6128C24.4417 17.6128 23.7526 17.927 23.7526 18.391C23.7526 18.7858 23.9894 19.013 24.7945 19.2482L25.1307 19.3465C25.6468 19.5076 25.841 19.6301 25.841 19.8718C25.841 20.194 25.3888 20.31 24.9531 20.31C24.5142 20.3097 24.0798 20.2507 23.6745 20.136C23.6485 20.2027 23.6365 20.2716 23.639 20.3407C23.639 20.409 23.6508 20.4772 23.6745 20.5437C24.107 20.6758 24.579 20.737 25.0525 20.7225C25.9049 20.7225 26.5939 20.4003 26.5939 19.8766C26.5939 19.4512 26.2767 19.1983 25.5971 18.9888" fill="#555555"/>
<path d="M40.0123 9.0466V10.109C39.7083 10.0586 39.3959 10.036 39.0831 10.0416C37.1189 10.0416 35.79 10.9389 35.79 12.3662C35.79 13.7936 37.0915 14.6351 39.1241 14.6351C40.0279 14.6416 40.9275 14.5498 41.7887 14.3631V8.07024C41.2565 8.19522 40.7572 8.37729 40.3095 8.60956C40.1047 8.70991 39.991 8.8753 40.0089 9.0466M40.0089 13.589C39.7628 13.638 39.5069 13.6608 39.2505 13.6564C38.0754 13.6564 37.6176 13.131 37.6176 12.3709C37.6176 11.5224 38.0754 11.0063 39.2369 11.0063C39.4975 11.0044 39.7574 11.027 40.0089 11.0737V13.589ZM32.0664 10.023C31.42 10.0139 30.7746 10.0623 30.1466 10.1671C30.0407 10.4815 30.0407 10.8081 30.1466 11.1225C30.6776 11.0344 31.2228 10.9922 31.7693 10.997C32.6848 10.997 33.1357 11.2504 33.1357 11.7665V11.8153C32.8624 11.7944 32.5344 11.7758 32.3056 11.7758C30.7888 11.7758 29.4839 12.1454 29.4839 13.1403C29.4839 14.2608 30.659 14.6397 32.3636 14.6397C33.2048 14.6352 34.0404 14.5467 34.8438 14.3771V11.8548C34.8438 10.646 33.8838 10.0509 32.0664 10.023ZM33.1357 13.6494C32.8853 13.6796 32.6316 13.6959 32.3773 13.6983C31.5609 13.6983 31.1168 13.5332 31.1168 13.1427C31.1168 12.7521 31.5609 12.5964 32.3773 12.5964C32.6506 12.5964 32.9649 12.6173 33.1357 12.6266V13.6494ZM9.07602 11.0923L7.78474 11.5968V14.6188H9.15117C9.27759 14.6202 9.38159 14.5514 9.38347 14.4654V11.2109C9.38741 11.1368 9.30421 11.074 9.19558 11.0691C9.14738 11.0684 9.10028 11.079 9.06235 11.0993M6.36705 12.2616V14.5096C6.36705 14.5661 6.43435 14.6118 6.51735 14.6118H7.40554V11.7316L6.52077 12.078C6.42269 12.111 6.36245 12.1802 6.36705 12.2546M7.31331 6.7289C6.35734 6.73123 5.40328 6.78711 4.46086 6.89628C5.4901 6.0004 7.07017 5.47865 8.74123 5.48288C9.98313 5.48732 11.1866 5.77641 12.1573 6.30349C12.3145 6.3895 12.4341 6.3988 12.5536 6.31744C12.6732 6.23607 12.6595 6.15704 12.5297 6.05243C9.55807 3.6531 3.89186 4.30941 2.25405 7.24266C1.5377 7.39159 0.846168 7.59104 0.19072 7.83777C0.0233368 7.90054 -0.0381625 7.9819 0.023337 8.07024C0.0836535 8.15749 0.234698 8.19655 0.364942 8.15857C0.894434 8.05396 1.43418 7.96563 1.99784 7.88426C1.93359 8.08983 1.90153 8.29944 1.90219 8.5096C1.87417 9.91361 2.91755 11.2272 4.659 11.9803C4.82638 12.0524 4.97327 12.0524 5.06892 11.9641C5.16457 11.8757 5.15091 11.7944 5.00743 11.706C3.93789 11.0342 3.33079 10.0882 3.33354 9.09774C3.32923 8.61819 3.47109 8.14325 3.75031 7.70294C4.31396 7.67039 4.92545 7.64715 5.59842 7.64715C9.96421 7.6518 13.6639 8.63048 13.6639 9.91602C13.6639 10.5669 12.4511 11.2155 11.013 11.6502C10.6714 11.7548 10.6303 11.8269 10.6714 11.9315C10.7123 12.0361 10.8729 12.0594 11.0539 12.0198C13.5716 11.4573 15.4949 10.5344 15.4949 9.41854C15.4949 7.90054 11.8977 6.7289 7.34063 6.7289M21.3672 10.0416C20.9085 10.0367 20.4538 10.1002 20.0349 10.2275V8.07024C19.5045 8.19774 19.0074 8.38217 18.5626 8.61653C18.3578 8.71688 18.244 8.88227 18.2619 9.05357V14.4003C19.017 14.576 19.8109 14.6617 20.6088 14.6537C22.9284 14.6397 24.2538 13.6773 24.2538 12.2825C24.2538 10.8877 23.3075 10.0416 21.3604 10.0416M20.7113 13.6494C20.4813 13.6565 20.2509 13.64 20.0281 13.6006V11.1806C20.35 11.0828 20.7006 11.0367 21.0529 11.0458C21.9411 11.0458 22.4193 11.4642 22.4193 12.2523C22.4193 13.0822 21.8591 13.6471 20.7113 13.6471M28.787 10.0811C28.0678 10.0592 27.3843 10.2957 26.9867 10.7041C26.9454 10.5089 26.878 10.3167 26.7851 10.1299C26.546 10.0905 26.2999 10.074 26.0541 10.0811C25.8141 10.0787 25.5746 10.0951 25.3401 10.1299V14.5468C25.6329 14.5839 25.9306 14.6002 26.2283 14.5956C26.5247 14.5956 26.8206 14.5793 27.1131 14.5468V12.3895C27.1131 11.5317 27.7724 11.0737 28.6606 11.0737C28.8569 11.0714 29.0533 11.0784 29.2482 11.0946C29.3505 10.7735 29.3609 10.442 29.2789 10.1183C29.1135 10.0954 28.9454 10.083 28.7767 10.0811M63.1975 10.023C61.2059 10.023 60.0888 10.9528 60.0888 12.3476C60.0888 13.7424 61.2639 14.6467 63.1975 14.6467C65.2027 14.6467 66.3198 13.7424 66.3198 12.3476C66.3198 10.9528 65.2027 10.023 63.1975 10.023ZM63.1975 13.6657C62.2102 13.6657 61.9096 13.1217 61.9096 12.3406C61.9096 11.5596 62.2102 10.997 63.1975 10.997C64.1847 10.997 64.5024 11.5619 64.5024 12.3406C64.5024 13.1589 64.1608 13.6657 63.1975 13.6657ZM52.6998 11.9222L51.9858 11.7176C51.569 11.6014 51.3265 11.5038 51.3265 11.3178C51.3265 11.0342 51.6988 10.9761 52.1873 10.9761C52.7564 10.976 53.3217 11.0388 53.8612 11.162C53.9467 10.8626 53.9467 10.5548 53.8612 10.2554C53.2481 10.0858 52.5891 10.0066 51.9277 10.023C50.5613 10.023 49.5091 10.5297 49.5091 11.2876C49.5091 11.971 49.9361 12.3128 51.142 12.6429L51.6988 12.7986C52.2283 12.9451 52.3821 13.0311 52.3821 13.2635C52.3821 13.6146 51.8662 13.675 51.4392 13.675C50.777 13.67 50.1217 13.5826 49.5057 13.417C49.393 13.7277 49.393 14.0524 49.5057 14.3631C50.2075 14.5753 50.9729 14.6717 51.7398 14.6444C53.1063 14.6444 54.1892 14.1585 54.1892 13.2821C54.1892 12.5615 53.7314 12.2198 52.7134 11.9269M58.2441 13.6494C57.3559 13.6494 56.7683 13.1845 56.7683 12.3337C56.7683 11.534 57.2398 11.0179 58.2578 11.0179C58.6465 11.0158 59.0316 11.0689 59.3885 11.1737C59.5192 10.8675 59.7323 10.5806 60.0171 10.3275C59.4041 10.111 58.7189 10.0068 58.0289 10.0253C56.0646 10.0253 54.9339 10.9691 54.9339 12.3337C54.9339 13.7471 56.0954 14.6421 58.1006 14.6421C58.7753 14.6581 59.4449 14.5581 60.0478 14.3515C59.7468 14.099 59.5154 13.8115 59.3646 13.503C59.0103 13.6127 58.6226 13.6629 58.2339 13.6494M45.8675 10.0253C43.9477 10.0253 42.7725 10.9017 42.7725 12.3639C42.7725 13.8261 44.0194 14.6421 46.1545 14.6421C46.8437 14.6532 47.5288 14.5669 48.1666 14.3887C48.2657 14.0824 48.2657 13.7651 48.1666 13.4588C47.5728 13.587 46.9549 13.6559 46.3321 13.6634C45.3449 13.6634 44.6582 13.41 44.5148 12.6986H48.5765C48.6311 12.4963 48.6551 12.2906 48.6483 12.0849C48.6483 10.7692 47.5585 10.0299 45.8846 10.0299M44.5387 11.8129C44.6685 11.276 45.1399 10.9551 45.8539 10.9551C46.6567 10.9551 46.9709 11.3248 47.0017 11.8129H44.5387Z" fill="#555555"/>
<path fill-rule="evenodd" clip-rule="evenodd" d="M168.179 5.81358L168.175 5.81671L168.17 5.81984C166.691 6.95019 164.584 7.90415 162.069 8.57615L161.822 8.64116L162.015 8.76506C163.558 9.75302 164.41 11.0724 164.41 12.4753V18.0533C164.625 20.2027 166.988 22.1352 170.735 23.2255C172.329 23.6776 173.684 24.3156 174.655 25.0744L174.784 25.1735L174.912 25.0744C175.883 24.3156 177.238 23.6776 178.832 23.2255C182.579 22.1352 184.942 20.2027 185.153 18.0533V12.4753C185.157 11.0724 186.005 9.75302 187.552 8.76506L187.74 8.64116L187.498 8.57615C184.983 7.90415 182.872 6.95019 181.393 5.81984L181.388 5.81671L181.383 5.81358C179.588 4.64596 177.243 3.99557 174.783 3.98633C172.32 3.99557 169.975 4.64596 168.179 5.81358Z" fill="#555555"/>
<path fill-rule="evenodd" clip-rule="evenodd" d="M174.784 4.2124C177.156 4.22164 179.419 4.85026 181.15 5.97778C182.62 7.09575 184.686 8.04047 187.14 8.71873C185.643 9.73754 184.819 11.0632 184.819 12.4754V18.0409C184.612 20.1036 182.327 21.9617 178.7 23.0178C177.124 23.4638 175.777 24.0894 174.784 24.8357C173.79 24.0893 172.439 23.4636 170.863 23.0178C167.24 21.9617 164.955 20.1036 164.744 18.0409V12.4754C164.744 11.0632 163.924 9.73754 162.427 8.71873C164.877 8.04047 166.947 7.0959 168.413 5.97778C170.149 4.85026 172.411 4.22164 174.784 4.2124ZM171.971 5.54403V9.45558H177.591V5.5409C178.31 5.73608 178.988 6.0055 179.615 6.33696C180.156 6.63427 180.6 6.98735 181.108 7.30627C182.253 8.00708 183.53 8.60276 184.905 9.07792C184.063 9.93899 183.587 10.9114 183.449 11.9271H181.246V15.7273H183.408V17.9974C183.302 18.7717 182.899 19.4128 182.24 20.0446C181.484 20.7166 180.596 21.2183 179.538 21.6581C178.905 21.906 178.246 22.101 177.591 22.3085V18.1955H171.971V22.3052C171.843 22.265 171.71 22.2247 171.578 22.1845L171.134 22.0512C169.191 21.4255 167.502 20.5336 166.595 19.1832C166.361 18.7898 166.214 18.4183 166.16 17.9971V15.727H168.317V11.9268H166.118C165.976 10.9078 165.5 9.93852 164.662 9.0776C166.434 8.46748 168.097 7.64369 169.43 6.64336C170.19 6.16042 171.046 5.79184 171.971 5.54403Z" fill="#C4C4C4"/>
<path fill-rule="evenodd" clip-rule="evenodd" d="M180.081 27.4803V25.5044H180.69V27.118H182.129V27.4803H180.081ZM179.513 25.5043V27.4802H178.904V25.5043H179.513ZM176.097 26.8702H176.678C176.706 26.9539 176.729 27.0187 176.779 27.0684C176.875 27.152 177.044 27.2017 177.287 27.2017C177.434 27.2017 177.558 27.1832 177.654 27.1675C177.823 27.118 177.897 27.0532 177.897 26.9384C177.897 26.8702 177.874 26.8238 177.777 26.7897C177.704 26.7402 177.558 26.7247 177.388 26.6905L177.067 26.6412C176.751 26.5917 176.559 26.542 176.435 26.4925C176.243 26.3934 176.147 26.2634 176.147 26.0651C176.147 25.7028 176.536 25.4394 177.264 25.4394C177.874 25.4394 178.382 25.6717 178.409 26.0992H177.8C177.8 25.9659 177.727 25.8854 177.58 25.8359C177.484 25.8017 177.36 25.7864 177.214 25.7864C176.898 25.7864 176.705 25.8854 176.705 26.0311C176.705 26.0994 176.751 26.1644 176.852 26.1984C176.898 26.2139 177.044 26.2479 177.214 26.2789L177.727 26.3625C177.946 26.3934 178.116 26.443 178.24 26.4925C178.409 26.5917 178.506 26.7247 178.506 26.9045C178.506 27.2667 178.066 27.53 177.315 27.53C176.559 27.5298 176.097 27.2822 176.097 26.8702ZM173.088 27.4803L174.136 25.5044H174.842L175.863 27.4803H175.204L175.011 27.0684H173.939L173.72 27.4803H173.088ZM174.475 25.9504L174.109 26.74H174.842L174.475 25.9504ZM171.81 25.5043C172.222 25.5043 172.414 25.5726 172.561 25.6871C172.685 25.7862 172.781 25.9163 172.781 26.0649C172.781 26.2477 172.634 26.4612 172.318 26.5419C172.588 26.6069 172.685 26.7245 172.685 27.0034V27.1334C172.685 27.2169 172.708 27.282 172.708 27.316C172.73 27.3655 172.758 27.4152 172.831 27.4305V27.48H172.149C172.126 27.4305 172.126 27.3995 172.099 27.3809C172.099 27.3159 172.076 27.2664 172.076 27.2014V27.0186C172.076 26.7739 171.979 26.7059 171.613 26.7059H170.981V27.48H170.372V25.5041L171.81 25.5043ZM171.686 25.8512H170.981V26.3777H171.663C171.81 26.3777 171.906 26.3622 171.979 26.3436C172.098 26.3127 172.171 26.2291 172.171 26.1144C172.171 25.9997 172.098 25.9161 171.979 25.8851C171.929 25.8512 171.81 25.8512 171.686 25.8512ZM168.732 26.6039H168.022V27.1302H168.732C168.865 27.1302 168.97 27.1302 169.039 27.0994C169.167 27.0562 169.231 26.9817 169.231 26.8516C169.231 26.7494 169.167 26.675 169.039 26.6472C168.97 26.6163 168.865 26.6039 168.732 26.6039ZM168.865 25.5043C169.208 25.5043 169.469 25.5787 169.62 25.7118C169.707 25.7986 169.749 25.9007 169.749 26.0184C169.749 26.1362 169.707 26.2383 169.62 26.3094C169.556 26.3404 169.492 26.3838 169.382 26.4116C169.685 26.486 169.836 26.6625 169.836 26.8793C169.836 26.9969 169.794 27.0991 169.707 27.2014C169.666 27.2603 169.597 27.3035 169.515 27.35C169.318 27.4521 169.057 27.48 168.755 27.48H167.436V25.5041L168.865 25.5043ZM168.668 25.842H168.022V26.2819H168.732C168.993 26.2819 169.167 26.2231 169.167 26.0621C169.167 25.9598 169.126 25.9011 169.016 25.8699C168.906 25.8574 168.801 25.842 168.668 25.842ZM170.042 2.97623L170.628 4.19649L169.094 3.44397L167.559 4.19649L168.146 2.97623L166.611 2.22372H168.507L169.094 1.00346L169.68 2.22372H171.576L170.042 2.97623ZM179.523 2.97623L178.936 4.19649L180.47 3.44397L182.005 4.19649L181.419 2.97623L182.953 2.22372H181.057L180.47 1.00346L179.885 2.22372H177.988L179.523 2.97623ZM184.13 5.45387L183.544 6.67412L185.078 5.91847L186.612 6.67412L186.026 5.45387L187.561 4.70135H185.664L185.078 3.4811L184.492 4.70135H182.596L184.13 5.45387ZM165.434 5.45387L166.02 6.67412L164.486 5.91847L162.952 6.67412L163.538 5.45387L162.004 4.70135H163.9L164.486 3.4811L165.073 4.70135H166.969L165.434 5.45387ZM175.73 1.97293L176.317 3.19303L174.782 2.44051L173.248 3.19303L173.834 1.97293L172.3 1.22026H174.196L174.782 0L175.368 1.22026H177.265L175.73 1.97293ZM173.289 5.27749V12.8158H166.153L166.158 14.8351H173.289V22.7821C173.811 22.9989 174.311 23.2373 174.782 23.5069C175.249 23.2373 175.753 22.9989 176.275 22.7821V14.8351H183.406V12.8157H176.275V5.27435C175.722 5.19839 175.159 5.16309 174.594 5.16909C174.15 5.1846 173.71 5.21859 173.289 5.27749Z" fill="white"/>
<path fill-rule="evenodd" clip-rule="evenodd" d="M181.008 10.7099L178.713 12.3172H177.014V11.1682L179.391 9.61663V9.33154H170.176V9.61663L172.548 11.1682V12.3172H170.854L168.559 10.7099H168.138V16.941H168.559L170.854 15.3338H172.548V16.4828L170.176 18.0344V18.3193H179.391V18.0344L177.014 16.4828V15.3338H178.713L181.008 16.941H181.429V10.7099H181.008Z" fill="white"/>
<path fill-rule="evenodd" clip-rule="evenodd" d="M170.235 13.8247C170.235 13.4469 170.409 13.1496 170.698 12.9359C170.968 12.7562 171.307 12.6572 171.724 12.6572C172.283 12.6572 172.695 12.7872 172.938 13.0351C173.084 13.1684 173.157 13.2984 173.18 13.447H172.503C172.452 13.3325 172.379 13.2487 172.306 13.1992C172.182 13.1001 172.012 13.0506 171.77 13.0506C171.261 13.0506 170.941 13.3479 170.941 13.8435C170.941 14.336 171.284 14.5836 171.77 14.5836C172.013 14.5836 172.182 14.5341 172.306 14.4351C172.379 14.37 172.452 14.2865 172.503 14.1717H173.18C173.061 14.6486 172.548 14.9956 171.77 14.9956C171.307 14.9956 170.918 14.8965 170.652 14.6828C170.382 14.4657 170.235 14.187 170.235 13.8247ZM175.173 13.9392H174.371V14.5338H175.173C175.319 14.5338 175.438 14.5338 175.511 14.4997C175.658 14.4502 175.731 14.3697 175.731 14.221C175.731 14.1065 175.658 14.0228 175.511 13.9889C175.438 13.9578 175.319 13.9392 175.173 13.9392ZM175.319 12.7066C175.708 12.7066 176.001 12.7871 176.171 12.9357C176.268 13.0347 176.318 13.1494 176.318 13.2825C176.318 13.4126 176.268 13.5304 176.171 13.6109C176.098 13.645 176.025 13.6945 175.901 13.7254C176.244 13.809 176.414 14.0072 176.414 14.2519C176.414 14.3852 176.363 14.4995 176.268 14.6142C176.217 14.6823 176.144 14.7318 176.048 14.7783C175.828 14.896 175.539 14.927 175.196 14.927H173.711V12.7066H175.319ZM175.099 13.0844H174.371V13.58H175.173C175.466 13.58 175.658 13.5119 175.658 13.3322C175.658 13.2177 175.612 13.1494 175.489 13.1185C175.365 13.0999 175.246 13.0844 175.099 13.0844ZM176.991 14.9273V12.7066H179.327V13.0999H177.673V13.6109H179.134V13.9887H177.673V14.9272L176.991 14.9273Z" fill="#555555"/>
</svg>
